<svg width="23" height="26" viewBox="0 0 23 26" fill="none" xmlns="http://www.w3.org/2000/svg">
<path d="M22.2075 12.2925C22.3005 12.3854 22.3742 12.4957 22.4245 12.6171C22.4749 12.7385 22.5008 12.8686 22.5008 13C22.5008 13.1314 22.4749 13.2616 22.4245 13.383C22.3742 13.5044 22.3005 13.6146 22.2075 13.7075L11.9512 23.9575C10.6382 25.2703 8.85751 26.0078 7.00078 26.0077C5.14406 26.0076 3.36342 25.2699 2.0506 23.9569C0.73778 22.6439 0.000310069 20.8632 0.00042726 19.0065C0.000544451 17.1497 0.738239 15.3691 2.05123 14.0563L14.4587 1.46627C15.3961 0.527903 16.6678 0.000337754 17.9942 -0.000365507C19.3206 -0.00106877 20.5929 0.525148 21.5312 1.46252C22.4696 2.3999 22.9972 3.67164 22.9979 4.998C22.9986 6.32435 22.4724 7.59665 21.535 8.53502L9.12498 21.125C8.56139 21.6886 7.79701 22.0052 6.99998 22.0052C6.20295 22.0052 5.43856 21.6886 4.87498 21.125C4.31139 20.5614 3.99477 19.7971 3.99477 19C3.99477 18.203 4.31139 17.4386 4.87498 16.875L15.2875 6.29752C15.3787 6.20022 15.4884 6.12215 15.6103 6.06789C15.7321 6.01364 15.8636 5.98431 15.9969 5.98163C16.1303 5.97895 16.2628 6.00296 16.3867 6.05227C16.5106 6.10157 16.6234 6.17516 16.7185 6.26872C16.8136 6.36227 16.8889 6.47389 16.9402 6.59702C16.9915 6.72014 17.0176 6.85227 17.017 6.98564C17.0165 7.11901 16.9892 7.25092 16.9369 7.3736C16.8846 7.49629 16.8083 7.60727 16.7125 7.70002L6.29873 18.2888C6.20549 18.3813 6.13138 18.4912 6.08064 18.6124C6.02989 18.7335 6.00351 18.8635 6.00299 18.9948C6.00246 19.1261 6.02782 19.2563 6.07759 19.3778C6.12737 19.4994 6.2006 19.6099 6.2931 19.7031C6.3856 19.7964 6.49556 19.8705 6.6167 19.9212C6.73784 19.972 6.86779 19.9984 6.99912 19.9989C7.13046 19.9994 7.26061 19.9741 7.38215 19.9243C7.50369 19.8745 7.61424 19.8013 7.70748 19.7088L20.1162 7.12502C20.6798 6.5626 20.9969 5.79932 20.9977 5.00312C20.9985 4.20691 20.683 3.44298 20.1206 2.8794C19.5582 2.31581 18.7949 1.99873 17.9987 1.99791C17.2025 1.99709 16.4386 2.3126 15.875 2.87502L3.46998 15.46C3.00526 15.924 2.63648 16.475 2.3847 17.0815C2.13291 17.688 2.00305 18.3381 2.00253 18.9948C2.00201 19.6515 2.13083 20.3018 2.38165 20.9087C2.63247 21.5156 3.00037 22.0672 3.46435 22.5319C3.92833 22.9966 4.47929 23.3654 5.08579 23.6172C5.69229 23.869 6.34244 23.9988 6.99912 23.9993C7.65581 23.9999 8.30616 23.871 8.91306 23.6202C9.51996 23.3694 10.0715 23.0015 10.5362 22.5375L20.7937 12.2875C20.9819 12.1008 21.2365 11.9964 21.5016 11.9974C21.7667 11.9983 22.0206 12.1045 22.2075 12.2925Z" fill="#1E88F9"/>
</svg>
