<svg width="22" height="20" viewBox="0 0 22 20" fill="none" xmlns="http://www.w3.org/2000/svg">
<path d="M20.7559 15.5087C21.2741 14.4338 21.5284 13.2508 21.4976 12.058C21.4668 10.8651 21.1518 9.6968 20.5788 8.6501C20.0058 7.60341 19.1914 6.70854 18.2031 6.03984C17.2148 5.37113 16.0812 4.94789 14.8965 4.80527C14.5023 3.88873 13.9292 3.06007 13.2107 2.36779C12.4923 1.67551 11.6429 1.13353 10.7124 0.773604C9.78186 0.413674 8.78887 0.243022 7.79157 0.271641C6.79427 0.300261 5.81271 0.527576 4.90435 0.940277C3.996 1.35298 3.17912 1.94277 2.50155 2.67511C1.82398 3.40745 1.29934 4.26762 0.958344 5.20525C0.617353 6.14288 0.466867 7.13912 0.515698 8.13563C0.56453 9.13215 0.811699 10.1089 1.24273 11.0087L0.561167 13.3253C0.484962 13.5839 0.479867 13.8582 0.546416 14.1195C0.612966 14.3808 0.748701 14.6193 0.93934 14.8099C1.12998 15.0005 1.36848 15.1363 1.62974 15.2028C1.891 15.2694 2.16537 15.2643 2.42398 15.1881L4.74054 14.5065C5.48438 14.8639 6.28187 15.0967 7.10117 15.1956C7.49921 16.1282 8.08224 16.9704 8.81501 17.6713C9.54779 18.3723 10.4151 18.9173 11.3645 19.2735C12.3139 19.6297 13.3256 19.7897 14.3386 19.7438C15.3516 19.698 16.3447 19.4471 17.258 19.0065L19.5746 19.6881C19.8331 19.7642 20.1074 19.7693 20.3685 19.7027C20.6297 19.6362 20.8681 19.5006 21.0587 19.3101C21.2493 19.1196 21.385 18.8812 21.4517 18.6201C21.5183 18.359 21.5134 18.0848 21.4374 17.8262L20.7559 15.5087ZM4.81179 12.9531C4.74012 12.9532 4.66882 12.9633 4.59992 12.9831L1.99929 13.75L2.76523 11.1475C2.8197 10.9594 2.79851 10.7576 2.70617 10.585C2.02771 9.31612 1.8278 7.84573 2.14288 6.44182C2.45797 5.03792 3.26706 3.79398 4.42268 2.93678C5.57829 2.07958 7.00347 1.66619 8.4384 1.77198C9.87334 1.87778 11.2225 2.4957 12.2399 3.5131C13.2573 4.53051 13.8752 5.87965 13.981 7.31459C14.0868 8.74953 13.6734 10.1747 12.8162 11.3303C11.959 12.4859 10.7151 13.295 9.31117 13.6101C7.90726 13.9252 6.43687 13.7253 5.16804 13.0468C5.05893 12.9864 4.93649 12.9542 4.81179 12.9531ZM19.2296 15.6465L19.9993 18.25L17.3968 17.484C17.2088 17.4295 17.0069 17.4507 16.8343 17.5431C15.4532 18.2805 13.8387 18.4494 12.3349 18.0137C10.8311 17.578 9.5569 16.5721 8.78398 15.2106C9.8109 15.1034 10.8046 14.7852 11.7027 14.2758C12.6008 13.7665 13.384 13.077 14.0031 12.2507C14.6222 11.4244 15.0638 10.4791 15.3003 9.47405C15.5368 8.46901 15.5631 7.42593 15.3774 6.41027C16.2722 6.62117 17.1065 7.03485 17.816 7.61936C18.5255 8.20388 19.0912 8.9436 19.4694 9.78144C19.8476 10.6193 20.0283 11.5328 19.9975 12.4516C19.9666 13.3703 19.7251 14.2697 19.2915 15.0803C19.1981 15.2539 19.1769 15.4573 19.2324 15.6465H19.2296Z" fill="white"/>
</svg>
