<svg width="25" height="24" viewBox="0 0 25 24" fill="none" xmlns="http://www.w3.org/2000/svg">
<path d="M22.4993 16.19C22.4993 19.83 20.3293 22 16.6893 22H15.4993C14.9493 22 14.4993 21.55 14.4993 21V15.23C14.4993 14.96 14.7193 14.73 14.9893 14.73L16.7493 14.7C16.8893 14.69 17.0093 14.59 17.0393 14.45L17.3893 12.54C17.4193 12.36 17.2793 12.19 17.0893 12.19L14.9593 12.22C14.6793 12.22 14.4593 12 14.4493 11.73L14.4093 9.28C14.4093 9.12 14.5393 8.98001 14.7093 8.98001L17.1093 8.94C17.2793 8.94 17.4093 8.81002 17.4093 8.64002L17.3693 6.23999C17.3693 6.06999 17.2393 5.94 17.0693 5.94L14.3693 5.98001C12.7093 6.01001 11.3893 7.37 11.4193 9.03L11.4693 11.78C11.4793 12.06 11.2593 12.28 10.9793 12.29L9.77927 12.31C9.60927 12.31 9.47928 12.44 9.47928 12.61L9.50928 14.51C9.50928 14.68 9.63927 14.81 9.80927 14.81L11.0093 14.79C11.2893 14.79 11.5093 15.01 11.5193 15.28L11.6093 20.98C11.6193 21.54 11.1693 22 10.6093 22H8.30927C4.66927 22 2.49927 19.83 2.49927 16.18V7.81C2.49927 4.17 4.66927 2 8.30927 2H16.6893C20.3293 2 22.4993 4.17 22.4993 7.81V16.19Z" fill="white"/>
</svg>
