<svg width="25" height="24" viewBox="0 0 25 24" fill="none" xmlns="http://www.w3.org/2000/svg">
<path d="M16.6916 2H8.31159C4.67159 2 2.50159 4.17 2.50159 7.81V16.18C2.50159 19.83 4.67159 22 8.31159 22H16.6816C20.3216 22 22.4916 19.83 22.4916 16.19V7.81C22.5016 4.17 20.3316 2 16.6916 2ZM12.5016 15.88C10.3616 15.88 8.62159 14.14 8.62159 12C8.62159 9.86 10.3616 8.12 12.5016 8.12C14.6416 8.12 16.3816 9.86 16.3816 12C16.3816 14.14 14.6416 15.88 12.5016 15.88ZM18.4216 6.88C18.3716 7 18.3016 7.11 18.2116 7.21C18.1116 7.3 18.0016 7.37 17.8816 7.42C17.7616 7.47 17.6316 7.5 17.5016 7.5C17.2316 7.5 16.9816 7.4 16.7916 7.21C16.7016 7.11 16.6316 7 16.5816 6.88C16.5316 6.76 16.5016 6.63 16.5016 6.5C16.5016 6.37 16.5316 6.24 16.5816 6.12C16.6316 5.99 16.7016 5.89 16.7916 5.79C17.0216 5.56 17.3716 5.45 17.6916 5.52C17.7616 5.53 17.8216 5.55 17.8816 5.58C17.9416 5.6 18.0016 5.63 18.0616 5.67C18.1116 5.7 18.1616 5.75 18.2116 5.79C18.3016 5.89 18.3716 5.99 18.4216 6.12C18.4716 6.24 18.5016 6.37 18.5016 6.5C18.5016 6.63 18.4716 6.76 18.4216 6.88Z" fill="white"/>
</svg>
