<svg width="16" height="16" viewBox="0 0 16 16" fill="none" xmlns="http://www.w3.org/2000/svg">
<path d="M5.2026 1.3335H10.8026C12.9359 1.3335 14.6693 3.06683 14.6693 5.20016V10.8002C14.6693 11.8257 14.2619 12.8092 13.5368 13.5343C12.8116 14.2594 11.8281 14.6668 10.8026 14.6668H5.2026C3.06927 14.6668 1.33594 12.9335 1.33594 10.8002V5.20016C1.33594 4.17466 1.74332 3.19116 2.46846 2.46602C3.1936 1.74088 4.1771 1.3335 5.2026 1.3335ZM5.06927 2.66683C4.43275 2.66683 3.8223 2.91969 3.37221 3.36977C2.92213 3.81986 2.66927 4.43031 2.66927 5.06683V10.9335C2.66927 12.2602 3.7426 13.3335 5.06927 13.3335H10.9359C11.5725 13.3335 12.1829 13.0806 12.633 12.6306C13.0831 12.1805 13.3359 11.57 13.3359 10.9335V5.06683C13.3359 3.74016 12.2626 2.66683 10.9359 2.66683H5.06927ZM11.5026 3.66683C11.7236 3.66683 11.9356 3.75463 12.0919 3.91091C12.2481 4.06719 12.3359 4.27915 12.3359 4.50016C12.3359 4.72118 12.2481 4.93314 12.0919 5.08942C11.9356 5.2457 11.7236 5.3335 11.5026 5.3335C11.2816 5.3335 11.0696 5.2457 10.9133 5.08942C10.7571 4.93314 10.6693 4.72118 10.6693 4.50016C10.6693 4.27915 10.7571 4.06719 10.9133 3.91091C11.0696 3.75463 11.2816 3.66683 11.5026 3.66683ZM8.0026 4.66683C8.88666 4.66683 9.73451 5.01802 10.3596 5.64314C10.9847 6.26826 11.3359 7.11611 11.3359 8.00016C11.3359 8.88422 10.9847 9.73206 10.3596 10.3572C9.73451 10.9823 8.88666 11.3335 8.0026 11.3335C7.11855 11.3335 6.2707 10.9823 5.64558 10.3572C5.02046 9.73206 4.66927 8.88422 4.66927 8.00016C4.66927 7.11611 5.02046 6.26826 5.64558 5.64314C6.2707 5.01802 7.11855 4.66683 8.0026 4.66683ZM8.0026 6.00016C7.47217 6.00016 6.96346 6.21088 6.58839 6.58595C6.21332 6.96102 6.0026 7.46973 6.0026 8.00016C6.0026 8.5306 6.21332 9.0393 6.58839 9.41438C6.96346 9.78945 7.47217 10.0002 8.0026 10.0002C8.53304 10.0002 9.04175 9.78945 9.41682 9.41438C9.79189 9.0393 10.0026 8.5306 10.0026 8.00016C10.0026 7.46973 9.79189 6.96102 9.41682 6.58595C9.04175 6.21088 8.53304 6.00016 8.0026 6.00016Z" fill="white"/>
</svg>
