<svg width="28" height="29" viewBox="0 0 28 29" fill="none" xmlns="http://www.w3.org/2000/svg">
<path d="M27.8772 21.9288L21.9097 11.8575C21.7558 11.5951 21.5356 11.3778 21.2713 11.2273C21.007 11.0768 20.7077 10.9984 20.4036 11C20.0995 10.9984 19.8005 11.0768 19.5363 11.2273C19.2721 11.3778 19.0522 11.5952 18.8986 11.8575L17.1879 14.7439C17.1481 14.8113 17.1271 14.8882 17.1271 14.9665C17.1271 15.0448 17.1481 15.1217 17.1879 15.1891L20.1192 20.1623C20.2305 20.347 20.2709 20.5659 20.2329 20.7782C20.1949 20.9905 20.081 21.1817 19.9125 21.3163C19.8143 21.3925 19.7009 21.447 19.58 21.476C19.4591 21.505 19.3334 21.5079 19.2113 21.4845C19.0891 21.4611 18.9734 21.412 18.8718 21.3403C18.7701 21.2687 18.6849 21.1762 18.6218 21.0691L11.1329 8.36188C10.9784 8.09923 10.7579 7.88148 10.4934 7.7302C10.2289 7.57892 9.9294 7.49934 9.62466 7.49934C9.31992 7.49934 9.02045 7.57892 8.75591 7.7302C8.49137 7.88148 8.27092 8.09923 8.11638 8.36188L0.121066 21.9309C0.0245966 22.0931 -0.0168751 22.2821 0.00283559 22.4697C0.0225463 22.6574 0.102384 22.8336 0.230441 22.9722C0.316671 23.0624 0.420703 23.1336 0.535935 23.1814C0.651166 23.2293 0.775081 23.2526 0.899816 23.25H27.0995C27.2237 23.2516 27.3469 23.2277 27.4615 23.1797C27.5761 23.1317 27.6796 23.0607 27.7656 22.9711C27.8942 22.8327 27.9746 22.6564 27.9947 22.4685C28.0149 22.2806 27.9736 22.0912 27.8772 21.9288ZM7.04669 13.625L9.62466 9.25L12.2026 13.625H7.04669ZM15.3122 6.1875C15.3122 5.66833 15.4661 5.16081 15.7546 4.72913C16.043 4.29745 16.453 3.961 16.9326 3.76232C17.4123 3.56364 17.9401 3.51165 18.4493 3.61294C18.9585 3.71423 19.4262 3.96423 19.7933 4.33135C20.1604 4.69846 20.4104 5.16619 20.5117 5.67539C20.613 6.18459 20.561 6.71239 20.3623 7.19205C20.1637 7.6717 19.8272 8.08167 19.3955 8.37011C18.9639 8.65855 18.4563 8.8125 17.9372 8.8125C17.241 8.8125 16.5733 8.53594 16.081 8.04366C15.5887 7.55137 15.3122 6.88369 15.3122 6.1875Z" fill="#F0F0F0"/>
</svg>
